<svg width="23" height="21" viewBox="0 0 23 21" fill="none" xmlns="http://www.w3.org/2000/svg">
<path d="M15.3572 18.9469C15.3572 19.8997 14.6289 20.6694 13.7274 20.6694L1.62976 20.6694C0.728306 20.6694 1.71661e-05 19.8997 1.71661e-05 18.9469C1.71661e-05 17.9942 0.728306 17.2245 1.62976 17.2245L13.7274 17.2245C14.6289 17.2245 15.3572 17.9942 15.3572 18.9469ZM19.6196 10.3347C19.6196 11.2874 18.8913 12.0571 17.9898 12.0571L1.62976 12.0571C0.728306 12.0571 1.71661e-05 11.2874 1.71661e-05 10.3347C1.71661e-05 9.38197 0.728306 8.61225 1.62976 8.61225L17.9898 8.61225C18.8913 8.61225 19.6196 9.38197 19.6196 10.3347ZM1.71661e-05 1.72246C1.71661e-05 0.769735 0.728306 1.71661e-05 1.62976 1.71661e-05L21.1866 1.71661e-05C22.0881 1.71661e-05 22.8163 0.769735 22.8163 1.72246C22.8163 2.67519 22.0881 3.44491 21.1866 3.44491L1.62976 3.44491C0.728306 3.44491 1.71661e-05 2.67519 1.71661e-05 1.72246Z" fill="white"/>
</svg>
