<svg width="276" height="276" viewBox="0 0 276 276" fill="none" xmlns="http://www.w3.org/2000/svg">
<rect x="1.5" y="1.5" width="273" height="273" rx="26.5" stroke="black" stroke-width="3" stroke-linecap="round" stroke-linejoin="round"/>
<path d="M159.688 115.318C159.688 113.983 158.88 112.772 157.638 112.254C156.396 111.737 154.978 112.026 154.025 112.968L149.512 117.491C144.543 122.46 137.804 125.254 130.776 125.254H129.875H126.562H116.625C112.971 125.254 110 128.225 110 131.879V141.815C110 145.469 112.971 148.439 116.625 148.439V161.688C116.625 163.52 118.105 165 119.938 165H126.562C128.395 165 129.875 163.52 129.875 161.688V148.439H130.776C137.804 148.439 144.543 151.234 149.512 156.202L154.025 160.715C154.978 161.667 156.396 161.947 157.638 161.429C158.88 160.912 159.688 159.711 159.688 158.365V143.098C161.613 142.188 163 139.735 163 136.847C163 133.959 161.613 131.506 159.688 130.595V115.318ZM153.062 123.257V136.847V150.437C146.976 144.899 139.036 141.815 130.776 141.815H129.875V131.879H130.776C139.036 131.879 146.976 128.794 153.062 123.257Z" fill="black"/>
</svg>
