<svg width="302" height="296" viewBox="0 0 302 296" fill="none" xmlns="http://www.w3.org/2000/svg">
<path d="M137.621 40.6632C77.2257 47.1065 33.3921 100.362 39.7113 159.612C46.0305 218.861 101.023 261.569 158.889 255.402C158.889 255.402 172.501 253.464 171.021 239.614C169.542 225.763 155.271 226.861 155.271 226.861C114.339 231.223 73.4838 199.971 68.8446 156.5C64.2055 113.029 96.3648 73.9584 140.676 69.2333C162.01 66.9614 178.056 72.9561 188.853 78.9317C193.415 81.4613 204.727 82.244 208.937 71.8584C213.156 61.4727 204.555 54.4375 202.026 53.1584C199.496 51.8793 173.904 36.7876 137.621 40.6536V40.6632Z" fill="#FB7411"/>
<path d="M301.688 150.286C302.929 68.5557 236.396 1.27797 153.081 0.0179475C69.7669 -1.24208 1.24821 64.0024 0.0168207 145.732C-1.21457 227.462 65.3186 294.74 148.624 296C156.002 295.943 167.486 295.809 177.222 293.795C184.334 292.325 188.944 283.858 187.799 277.739C185.642 262.609 171.056 265.54 171.056 265.54C167.715 266.036 162.713 267.363 149.053 267.153C81.9853 266.141 28.4151 211.979 29.4079 146.171C30.4006 80.3637 85.5745 27.8435 152.652 28.8554C219.72 29.8672 273.29 84.0292 272.297 149.837C271.677 191.093 251.258 222.995 223.404 243.613C223.404 243.613 212.14 252.529 219.147 263.755C226.153 274.98 239.813 267.583 239.813 267.583C268.412 246.974 300.81 208.161 301.688 150.276V150.286Z" fill="#FB7411"/>
<path d="M149.665 80.0017C113.477 80.0017 79.8477 108.247 79.8477 149.303C79.8477 190.359 118.527 216.963 146.877 215.989C146.877 215.989 160.795 215.989 161.186 201.871C161.578 187.753 146.877 187.753 146.877 187.753C130.23 187.753 110.966 171.048 110.966 147.652C110.966 125.84 128.903 108.257 150.409 108.257C171.915 108.257 189.852 125.897 189.852 147.652L189.947 201.871C189.947 201.871 190.663 215.989 204.142 215.989C217.62 215.989 218.451 201.871 218.451 201.871V149.045C218.451 107.465 185.862 80.0113 149.674 80.0113L149.665 80.0017Z" fill="#FB7411"/>
<path d="M137.621 40.6632C77.2257 47.1065 33.3921 100.362 39.7113 159.612C46.0305 218.861 101.023 261.569 158.889 255.402C158.889 255.402 172.501 253.464 171.021 239.614C169.542 225.763 155.271 226.861 155.271 226.861C114.339 231.223 73.4838 199.971 68.8446 156.5C64.2055 113.029 96.3648 73.9584 140.676 69.2333C162.01 66.9614 178.056 72.9561 188.853 78.9317C193.415 81.4613 204.727 82.244 208.937 71.8584C213.156 61.4727 204.555 54.4375 202.026 53.1584C199.496 51.8793 173.904 36.7876 137.621 40.6536V40.6632Z" fill="url(#paint0_linear_2762_48)"/>
<path d="M301.688 150.286C302.929 68.5557 236.396 1.27797 153.081 0.0179475C69.7669 -1.24208 1.24821 64.0024 0.0168207 145.732C-1.21457 227.462 65.3186 294.74 148.624 296C156.002 295.943 167.486 295.809 177.222 293.795C184.334 292.325 188.944 283.858 187.799 277.739C185.642 262.609 171.056 265.54 171.056 265.54C167.715 266.036 162.713 267.363 149.053 267.153C81.9853 266.141 28.4151 211.979 29.4079 146.171C30.4006 80.3637 85.5745 27.8435 152.652 28.8554C219.72 29.8672 273.29 84.0292 272.297 149.837C271.677 191.093 251.258 222.995 223.404 243.613C223.404 243.613 212.14 252.529 219.147 263.755C226.153 274.98 239.813 267.583 239.813 267.583C268.412 246.974 300.81 208.161 301.688 150.276V150.286Z" fill="url(#paint1_linear_2762_48)"/>
<path d="M149.665 80.0017C113.477 80.0017 79.8477 108.247 79.8477 149.303C79.8477 190.359 118.527 216.963 146.877 215.989C146.877 215.989 160.795 215.989 161.186 201.871C161.578 187.753 146.877 187.753 146.877 187.753C130.23 187.753 110.966 171.048 110.966 147.652C110.966 125.84 128.903 108.257 150.409 108.257C171.915 108.257 189.852 125.897 189.852 147.652L189.947 201.871C189.947 201.871 190.663 215.989 204.142 215.989C217.62 215.989 218.451 201.871 218.451 201.871V149.045C218.451 107.465 185.862 80.0113 149.674 80.0113L149.665 80.0017Z" fill="url(#paint2_linear_2762_48)"/>
<defs>
<linearGradient id="paint0_linear_2762_48" x1="0.0109363" y1="148.004" x2="301.72" y2="148.004" gradientUnits="userSpaceOnUse">
<stop stop-color="#F59D1B"/>
<stop offset="1" stop-color="#FC461B"/>
</linearGradient>
<linearGradient id="paint1_linear_2762_48" x1="-0.00227065" y1="148.004" x2="301.707" y2="148.004" gradientUnits="userSpaceOnUse">
<stop stop-color="#F59D1B"/>
<stop offset="1" stop-color="#FC461B"/>
</linearGradient>
<linearGradient id="paint2_linear_2762_48" x1="-0.0208221" y1="148.005" x2="301.689" y2="148.005" gradientUnits="userSpaceOnUse">
<stop stop-color="#F59D1B"/>
<stop offset="1" stop-color="#FC461B"/>
</linearGradient>
</defs>
</svg>
