<svg width="68" height="29" viewBox="0 0 68 29" fill="none" xmlns="http://www.w3.org/2000/svg">
<path d="M46.0038 10C46.0038 4.15488 51.3149 0 57.0419 0C62.7689 0 67.9998 4.23267 67.9998 10C67.9998 10 68.0113 10.8593 67.8434 11.6938C66.8438 11.6938 50.9982 11.7008 50.9982 11.7008C52.1658 14.8232 54.8404 15.8487 57.0419 15.8487C58.343 15.8487 59.5296 15.4243 60.0713 15.0919C60.0713 15.0919 62.2156 14.1584 63.2229 15.8734C64.2302 17.5919 62.395 18.7235 62.395 18.7235C61.4792 19.1337 59.6745 20 57.0381 20C51.3111 20 46 15.8416 46 10H46.0038ZM62.8299 7.87129C61.7005 5.27228 59.1556 4.15134 57.0457 4.15134C54.9358 4.15134 52.3031 5.22277 51.1737 7.87129H62.8299Z" fill="#263570"/>
<path d="M11.082 0C5.33877 0 0 4.15334 0 10.1907C0 16.2281 6.14016 20.141 10.6394 19.9961C10.6394 19.9961 12.8489 19.9961 12.91 17.9212C12.971 15.8463 10.6394 15.8463 10.6394 15.8463C7.9948 15.8463 4.93808 13.3897 4.93808 9.95034C4.93808 6.74431 7.78491 4.15687 11.2003 4.15687C14.6158 4.15687 17.4626 6.75138 17.4626 9.95034L17.4779 17.9212C17.4779 17.9212 17.5924 19.9961 19.7294 19.9961C21.8664 19.9961 22 17.9212 22 17.9212V10.1554C22 4.04023 16.8253 0.00353551 11.082 0.00353551V0Z" fill="#263570"/>
<path d="M34.0343 0.00362168C28.5725 0.00362168 23 3.97002 23 10.2474C23 16.5249 28.6106 20.4913 33.9962 20.4913C37.6044 20.4913 40.2552 19.2561 40.2552 17.3C40.2552 18.0897 40.2399 18.5932 40.2399 19.1474C40.2399 22.6248 36.6089 24.7474 34.1259 24.7474C30.346 24.7474 28.8967 22.3531 28.5114 21.6504C28.5114 21.6504 27.371 19.8682 25.4296 20.705C23.4844 21.5381 24.3006 23.5811 24.3006 23.5811C25.8301 26.3521 29.3658 29 34.0038 29C38.6418 29 45 25.8885 45 18.441V10.4032C45 4.10042 39.5076 0 34.0458 0L34.0343 0.00362168ZM33.9924 16.2387C30.5368 16.2387 27.7334 13.4785 27.7334 10.2003C27.7334 6.92218 30.5329 4.26343 33.9924 4.26343C37.4518 4.26343 40.2514 6.92218 40.2514 10.2003C40.2514 13.4785 37.4518 16.2387 33.9924 16.2387Z" fill="#263570"/>
</svg>
