<svg width="139" height="52" viewBox="0 0 139 52" fill="none" xmlns="http://www.w3.org/2000/svg">
<path fill-rule="evenodd" clip-rule="evenodd" d="M52.8611 26.3327C53.0786 12.0122 41.4208 0.223924 26.8226 0.00314473C12.2244 -0.217634 0.218709 11.2144 0.00294728 25.5349C-0.212814 39.8554 11.445 51.6437 26.0415 51.8645C27.3344 51.8545 29.3465 51.831 31.0525 51.4781C32.2986 51.2206 33.1064 49.737 32.9057 48.6649C32.5277 46.0138 29.972 46.5273 29.972 46.5273C29.8833 46.5405 29.7878 46.557 29.6814 46.5755C29.0859 46.6786 28.1473 46.8412 26.1168 46.81C14.3653 46.6327 4.97884 37.1425 5.15279 25.6118C5.32673 14.0812 14.9942 4.87868 26.7473 5.05598C38.4988 5.23327 47.8852 14.7234 47.7113 26.2541C47.6026 33.483 44.025 39.0727 39.1444 42.6854C39.1444 42.6854 37.1708 44.2476 38.3984 46.2146C39.6261 48.1815 42.0195 46.8853 42.0195 46.8853C47.0306 43.2742 52.7073 36.4735 52.8611 26.331V26.3327ZM24.1114 7.12495C13.529 8.25393 5.84858 17.5852 6.95582 27.9668C8.06306 38.3485 17.6987 45.8315 27.8378 44.751C27.8378 44.751 30.2229 44.4115 29.9637 41.9846C29.7044 39.5577 27.2039 39.7501 27.2039 39.7501C20.032 40.5144 12.8734 35.0384 12.0605 27.4216C11.2476 19.8047 16.8825 12.9589 24.6466 12.1309C28.3848 11.7329 31.1964 12.7832 33.088 13.8303C33.8875 14.2735 35.8695 14.4107 36.6071 12.5909C37.3464 10.7711 35.8394 9.53846 35.3962 9.31434C35.3719 9.30204 35.3354 9.28246 35.2871 9.25653C34.4552 8.81003 30.12 6.48305 24.1114 7.12327V7.12495ZM73.723 14.2769C67.3823 14.2769 61.4898 19.2261 61.4898 26.4198C61.4898 33.6135 68.2671 38.275 73.2346 38.1043C73.2346 38.1043 75.6732 38.1043 75.7418 35.6306C75.8103 33.1569 73.2346 33.1569 73.2346 33.1569C70.3176 33.1569 66.9424 30.2299 66.9424 26.1304C66.9424 22.3086 70.0851 19.2277 73.8534 19.2277C77.6217 19.2277 80.7645 22.3186 80.7645 26.1304L80.7812 35.6306C80.7812 35.6306 80.9067 38.1043 83.2683 38.1043C85.63 38.1043 85.7755 35.6306 85.7755 35.6306V26.3746C85.7755 19.0889 80.0654 14.2786 73.7247 14.2786L73.723 14.2769ZM114.705 26.1898C114.705 19.229 120.571 14.2769 126.893 14.2769C133.215 14.2769 138.989 19.3164 138.989 26.1906C138.989 26.1906 139 27.2126 138.815 28.2061C137.713 28.2061 120.219 28.2128 120.219 28.2128C121.509 31.9326 124.461 33.1535 126.893 33.1535C128.328 33.1535 129.637 32.6501 130.24 32.2537C130.24 32.2537 132.61 31.1398 133.72 33.187C134.832 35.2325 132.807 36.5823 132.807 36.5823L132.673 36.6473C131.626 37.1564 129.68 38.1027 126.893 38.1027C120.569 38.1027 114.705 33.1506 114.705 26.1898ZM126.893 19.2261C129.226 19.2261 132.035 20.5636 133.28 23.6567H120.411C121.654 20.5006 124.559 19.2261 126.893 19.2261ZM88.0955 26.1906C88.0955 18.8882 94.2506 14.2769 100.284 14.2769L100.287 14.2786C106.32 14.2786 112.383 19.0438 112.383 26.3746V35.7226C112.383 44.3832 105.365 48.0026 100.24 48.0026C95.1153 48.0026 91.2115 44.9217 89.5239 41.7004C89.5239 41.7004 88.6224 39.3237 90.7699 38.3536C92.9175 37.3818 94.1753 39.4524 94.1753 39.4524C94.6035 40.2687 96.2041 43.0535 100.377 43.0535C103.12 43.0535 107.131 40.5864 107.131 36.5405C107.131 36.2466 107.135 35.9656 107.139 35.6599L107.139 35.6582C107.144 35.2929 107.149 34.8924 107.149 34.3929C107.149 36.6693 104.224 38.1043 100.238 38.1043C94.294 38.1043 88.0955 33.4931 88.0955 26.1906ZM93.3273 26.1321C93.3273 29.9439 96.4215 33.1552 100.238 33.1552C104.055 33.1552 107.149 29.9439 107.149 26.1321C107.149 22.3203 104.055 19.2294 100.238 19.2294C96.4215 19.2294 93.3273 22.3203 93.3273 26.1321ZM26.2272 14.0177C19.8865 14.0177 13.994 18.9668 13.994 26.1606C13.994 33.3543 20.7713 38.0157 25.7388 37.8451C25.7388 37.8451 28.1774 37.8451 28.246 35.3714C28.3146 32.8977 25.7388 32.8977 25.7388 32.8977C22.8218 32.8977 19.4466 29.9707 19.4466 25.8712C19.4466 22.0494 22.5894 18.9685 26.3577 18.9685C30.126 18.9685 33.2687 22.0594 33.2687 25.8712L33.2854 35.3714C33.2854 35.3714 33.4109 37.8451 35.7725 37.8451C38.1342 37.8451 38.2797 35.3714 38.2797 35.3714V26.1154C38.2797 18.8297 32.5696 14.0194 26.2289 14.0194L26.2272 14.0177Z" fill="url(#paint0_linear_1694_2235)"/>
<defs>
<linearGradient id="paint0_linear_1694_2235" x1="-0.000358139" y1="25.9331" x2="52.8645" y2="25.9331" gradientUnits="userSpaceOnUse">
<stop stop-color="#F59D1B"/>
<stop offset="1" stop-color="#FC461B"/>
</linearGradient>
</defs>
</svg>
