<svg width="84" height="28" viewBox="0 0 84 28" fill="none" xmlns="http://www.w3.org/2000/svg">
<path fill-rule="evenodd" clip-rule="evenodd" d="M40.9112 9.82055C40.9116 4.08232 45.4279 0 50.2959 0C55.164 0 59.6097 4.15434 59.6097 9.82124C59.6097 9.82124 59.6188 10.6637 59.4758 11.4827C58.6271 11.4827 45.1573 11.4882 45.1573 11.4882C46.1502 14.5547 48.4233 15.5612 50.2959 15.5612C51.4009 15.5612 52.4093 15.1462 52.8729 14.8194C52.8729 14.8194 54.6978 13.9011 55.553 15.5888C56.4094 17.2751 54.8498 18.3878 54.8498 18.3878L54.7468 18.4413C53.9405 18.861 52.4417 19.6411 50.2959 19.6411C45.4267 19.6411 40.9116 15.5588 40.9112 9.82055ZM40.9112 9.82055C40.9112 9.82032 40.9112 9.82009 40.9112 9.81986V9.82124C40.9112 9.82101 40.9112 9.82078 40.9112 9.82055ZM50.2959 4.07989C52.0921 4.07989 54.2553 5.18253 55.2137 7.73234H45.3054C46.2623 5.13054 48.4993 4.07989 50.2959 4.07989ZM9.41947 1.52588e-05C4.53845 1.52588e-05 0 4.0799 0 10.0101C0 15.9404 5.21844 19.7831 9.04341 19.6425C9.04341 19.6425 10.9211 19.6425 10.9739 17.6032C11.0267 15.564 9.04341 15.564 9.04341 15.564C6.79737 15.564 4.19845 13.1511 4.19845 9.77161C4.19845 6.62104 6.61835 4.08128 9.51992 4.08128C12.4215 4.08128 14.8414 6.62932 14.8414 9.77161L14.8543 17.6032C14.8543 17.6032 14.9509 19.6425 16.7693 19.6425C18.5878 19.6425 18.6998 17.6032 18.6998 17.6032V9.97292C18.6986 3.96546 14.3018 1.52588e-05 9.41947 1.52588e-05ZM20.4549 9.82124C20.4549 3.80137 25.1943 0 29.8396 0C34.485 0 39.1535 3.92822 39.1561 9.9729V17.6791C39.1561 24.8185 33.7522 27.8022 29.8061 27.8022C25.8601 27.8022 22.8542 25.2625 21.5548 22.6069C21.5548 22.6069 20.8606 20.6476 22.5142 19.8479C24.1679 19.0468 25.1363 20.7538 25.1363 20.7538C25.466 21.4266 26.6985 23.7224 29.9117 23.7224C32.0238 23.7224 35.1122 21.6886 35.1122 18.3533C35.1122 18.1106 35.1151 17.8784 35.1183 17.6259C35.1221 17.3248 35.1263 16.9946 35.1263 16.5829C35.1263 18.4595 32.8738 19.6425 29.8048 19.6425C25.2278 19.6425 20.4549 15.8411 20.4549 9.82124ZM24.4834 9.77298C24.4834 12.9153 26.8659 15.5626 29.8048 15.5626C32.7438 15.5626 35.1263 12.9153 35.1263 9.77298C35.1263 6.63068 32.7438 4.08264 29.8048 4.08264C26.8659 4.08264 24.4834 6.63068 24.4834 9.77298Z" fill="url(#paint0_linear_1658_134)"/>
<path d="M76.1219 16.6361C76.4891 17.003 77.0853 17.003 77.4525 16.6361L83.092 11.0001C83.4592 10.6332 83.4592 10.0373 83.092 9.67035C82.7248 9.30343 82.1286 9.30343 81.7614 9.67035L76.7857 14.6429L71.81 9.67329C71.4429 9.30636 70.8466 9.30636 70.4795 9.67329C70.1123 10.0402 70.1123 10.6361 70.4795 11.003L76.119 16.639L76.1219 16.6361Z" fill="#19233B"/>
<defs>
<linearGradient id="paint0_linear_1658_134" x1="-9.5" y1="13" x2="89" y2="11.5" gradientUnits="userSpaceOnUse">
<stop stop-color="#FFB600"/>
<stop offset="1" stop-color="#F93822"/>
</linearGradient>
</defs>
</svg>
