<svg width="18" height="21" viewBox="0 0 18 21" fill="none" xmlns="http://www.w3.org/2000/svg">
<path d="M14.6257 8.73803C14.6257 10.4648 14.1019 12.0599 13.2194 13.354L17.6704 18.1204C18.1099 18.5907 18.1099 19.3544 17.6704 19.8246C17.2309 20.2949 16.5172 20.2949 16.0777 19.8246L11.6267 15.0582C10.4173 16.0062 8.92661 16.563 7.31286 16.563C3.27321 16.563 0 13.0606 0 8.73803C0 4.41549 3.27321 0.913071 7.31286 0.913071C11.3525 0.913071 14.6257 4.41549 14.6257 8.73803ZM3.65643 9.03899V11.4467C3.65643 11.947 4.03262 12.3495 4.50022 12.3495C4.96782 12.3495 5.34401 11.947 5.34401 11.4467V9.03899C5.34401 8.53864 4.96782 8.13611 4.50022 8.13611C4.03262 8.13611 3.65643 8.53864 3.65643 9.03899ZM6.46907 5.42747V11.4467C6.46907 11.947 6.84526 12.3495 7.31286 12.3495C7.78046 12.3495 8.15665 11.947 8.15665 11.4467V5.42747C8.15665 4.92712 7.78046 4.52459 7.31286 4.52459C6.84526 4.52459 6.46907 4.92712 6.46907 5.42747ZM9.2817 7.83515V11.4467C9.2817 11.947 9.65789 12.3495 10.1255 12.3495C10.5931 12.3495 10.9693 11.947 10.9693 11.4467V7.83515C10.9693 7.3348 10.5931 6.93227 10.1255 6.93227C9.65789 6.93227 9.2817 7.3348 9.2817 7.83515Z" fill="black"/>
</svg>
