<svg width="28" height="28" viewBox="0 0 28 28" fill="none" xmlns="http://www.w3.org/2000/svg">
<path d="M21.8203 21.0109C20.6117 18.9109 18.3422 17.5 15.75 17.5H12.25C9.65781 17.5 7.38828 18.9109 6.17969 21.0109C8.10469 23.1547 10.8938 24.5 14 24.5C17.1063 24.5 19.8953 23.1492 21.8203 21.0109ZM0 14C0 10.287 1.475 6.72601 4.10051 4.10051C6.72601 1.475 10.287 0 14 0C17.713 0 21.274 1.475 23.8995 4.10051C26.525 6.72601 28 10.287 28 14C28 17.713 26.525 21.274 23.8995 23.8995C21.274 26.525 17.713 28 14 28C10.287 28 6.72601 26.525 4.10051 23.8995C1.475 21.274 0 17.713 0 14ZM14 14.875C15.0443 14.875 16.0458 14.4602 16.7842 13.7217C17.5227 12.9833 17.9375 11.9818 17.9375 10.9375C17.9375 9.89321 17.5227 8.89169 16.7842 8.15327C16.0458 7.41484 15.0443 7 14 7C12.9557 7 11.9542 7.41484 11.2158 8.15327C10.4773 8.89169 10.0625 9.89321 10.0625 10.9375C10.0625 11.9818 10.4773 12.9833 11.2158 13.7217C11.9542 14.4602 12.9557 14.875 14 14.875Z" fill="black" fill-opacity="0.8"/>
</svg>
